<?xml version="1.0" encoding="utf-8"?>
<!-- Generator: Adobe Illustrator 16.0.0, SVG Export Plug-In . SVG Version: 6.00 Build 0)  -->
<!DOCTYPE svg PUBLIC "-//W3C//DTD SVG 1.1//EN" "http://www.w3.org/Graphics/SVG/1.1/DTD/svg11.dtd">
<svg version="1.1" id="Layer_1" xmlns="http://www.w3.org/2000/svg" xmlns:xlink="http://www.w3.org/1999/xlink" x="0px" y="0px"
	 width="679px" height="459px" viewBox="0 0 679 459" enable-background="new 0 0 679 459" xml:space="preserve">
<g>
	<linearGradient id="SVGID_1_" gradientUnits="userSpaceOnUse" x1="324.3047" y1="126.8418" x2="265.6515" y2="242.3572">
		<stop  offset="0" style="stop-color:#414042"/>
		<stop  offset="1" style="stop-color:#000000"/>
	</linearGradient>
	<circle fill="url(#SVGID_1_)" cx="282.64" cy="208.899" r="55.223"/>
	<radialGradient id="SVGID_2_" cx="255.0962" cy="204.2725" r="54.3914" gradientUnits="userSpaceOnUse">
		<stop  offset="0" style="stop-color:#27AAE1"/>
		<stop  offset="1" style="stop-color:#262262"/>
	</radialGradient>
	<circle fill="url(#SVGID_2_)" cx="282.64" cy="208.899" r="42.015"/>
	<linearGradient id="SVGID_3_" gradientUnits="userSpaceOnUse" x1="322.9453" y1="126.1514" x2="264.2922" y2="241.6666">
		<stop  offset="0" style="stop-color:#414042"/>
		<stop  offset="1" style="stop-color:#000000"/>
	</linearGradient>
	<path fill="url(#SVGID_3_)" d="M282.639,149.2c24.936,0,46.29,15.292,55.224,37.004v-24.019h1.638v-21.341h-2.688v-6.716h2.688
		v-6.865h-2.688c-0.746-2.239-3.73-8.208-10.744-8.208c-7.015,0-9.104,3.432-9.104,3.432l-3.731,4.925
		c11.939,2.239,19.7,12.834,19.7,12.834h-2.835c-5.671-5.373-12.984-11.939-25.67-11.939c-12.687,0-18.955,5.671-18.955,5.671
		l-21.089,18.075C270.139,150.206,276.27,149.2,282.639,149.2z"/>
	<linearGradient id="SVGID_4_" gradientUnits="userSpaceOnUse" x1="265.5283" y1="125.0532" x2="305.1532" y2="139.157">
		<stop  offset="0" style="stop-color:#FFFFFF"/>
		<stop  offset="1" style="stop-color:#FFFFFF;stop-opacity:0"/>
	</linearGradient>
	<path fill="url(#SVGID_4_)" d="M335.176,175.228c-11.328-17.735-30.941-28.714-52.537-28.714c-2.787,0-5.562,0.185-8.308,0.553
		l12.89-11.047c0.098-0.085,5.846-5.025,17.207-5.025c11.997,0,18.832,6.476,23.822,11.203l0.777,0.736h5.099v0.597h2.688V159.5
		h-1.638V175.228z M334.126,137.441c-2.21-2.617-8.033-8.721-16.34-11.59l1.461-1.929l0.005-0.015
		c0.292-0.355,2.021-2.166,6.816-2.166c5.777,0,7.841,5.308,8.196,6.371l0.612,1.836h1.937l-0.001,1.493h-2.687V137.441z"/>
	<g opacity="0.6">
		<path fill="#FFFFFF" d="M258.538,216.809c-1.327-9.161-0.079-15.671-0.079-15.671h-12.09c-0.533,2.504-0.819,5.099-0.819,7.761
			c0,2.716,0.299,5.36,0.854,7.91H258.538z"/>
		<path fill="#FFFFFF" d="M259.143,220.243H247.32c3.513,10.941,11.966,19.669,22.736,23.552
			C263.745,235.779,260.621,227.419,259.143,220.243z"/>
	</g>
	<circle opacity="0.6" fill="#FFFFFF" cx="306.068" cy="194.998" r="9.402"/>
	<circle opacity="0.6" fill="#FFFFFF" cx="298.329" cy="181.588" r="2.986"/>
	
		<linearGradient id="SVGID_5_" gradientUnits="userSpaceOnUse" x1="1588.9668" y1="126.8428" x2="1530.3137" y2="242.3579" gradientTransform="matrix(-1 0 0 1 1943.6621 0)">
		<stop  offset="0" style="stop-color:#414042"/>
		<stop  offset="1" style="stop-color:#000000"/>
	</linearGradient>
	<circle fill="url(#SVGID_5_)" cx="396.36" cy="208.899" r="55.223"/>
	
		<radialGradient id="SVGID_6_" cx="1519.7578" cy="204.2725" r="54.3916" gradientTransform="matrix(-1 0 0 1 1943.6621 0)" gradientUnits="userSpaceOnUse">
		<stop  offset="0" style="stop-color:#27AAE1"/>
		<stop  offset="1" style="stop-color:#262262"/>
	</radialGradient>
	<circle fill="url(#SVGID_6_)" cx="396.36" cy="208.899" r="42.015"/>
	
		<linearGradient id="SVGID_7_" gradientUnits="userSpaceOnUse" x1="1587.6074" y1="126.1514" x2="1528.9536" y2="241.668" gradientTransform="matrix(-1 0 0 1 1943.6621 0)">
		<stop  offset="0" style="stop-color:#414042"/>
		<stop  offset="1" style="stop-color:#000000"/>
	</linearGradient>
	<path fill="url(#SVGID_7_)" d="M396.361,149.2c-24.936,0-46.29,15.292-55.224,37.004v-24.019H339.5v-21.341h2.688v-6.716H339.5
		v-6.865h2.688c0.746-2.239,3.73-8.208,10.744-8.208c7.015,0,9.104,3.432,9.104,3.432l3.731,4.925
		c-11.939,2.239-19.7,12.834-19.7,12.834h2.835c5.671-5.373,12.984-11.939,25.67-11.939c12.687,0,18.955,5.671,18.955,5.671
		l21.089,18.075C408.861,150.206,402.73,149.2,396.361,149.2z"/>
	
		<linearGradient id="SVGID_8_" gradientUnits="userSpaceOnUse" x1="1530.1904" y1="125.0527" x2="1569.8153" y2="139.1565" gradientTransform="matrix(-1 0 0 1 1943.6621 0)">
		<stop  offset="0" style="stop-color:#FFFFFF"/>
		<stop  offset="1" style="stop-color:#FFFFFF;stop-opacity:0"/>
	</linearGradient>
	<path fill="url(#SVGID_8_)" d="M343.824,159.5h-1.638V143.53h2.688v-0.597h5.099l0.777-0.736
		c4.99-4.728,11.825-11.203,23.822-11.203c11.361,0,17.109,4.939,17.207,5.025l12.89,11.047c-2.746-0.368-5.521-0.553-8.308-0.553
		c-21.596,0-41.209,10.979-52.537,28.714V159.5z M344.874,131.441h-2.687l-0.001-1.493h1.937l0.612-1.836
		c0.355-1.063,2.419-6.371,8.196-6.371c4.796,0,6.524,1.811,6.816,2.166l0.005,0.015l1.461,1.929
		c-8.307,2.869-14.13,8.973-16.34,11.59V131.441z"/>
	<g opacity="0.6">
		<path fill="#FFFFFF" d="M420.462,216.809c1.327-9.161,0.079-15.671,0.079-15.671h12.09c0.533,2.504,0.819,5.099,0.819,7.761
			c0,2.716-0.299,5.36-0.853,7.91H420.462z"/>
		<path fill="#FFFFFF" d="M419.857,220.243h11.822c-3.513,10.941-11.966,19.669-22.736,23.552
			C415.256,235.779,418.379,227.419,419.857,220.243z"/>
	</g>
	<circle opacity="0.6" fill="#FFFFFF" cx="372.932" cy="194.998" r="9.402"/>
	<circle opacity="0.6" fill="#FFFFFF" cx="380.671" cy="181.588" r="2.986"/>
</g>
<g>
	<linearGradient id="SVGID_9_" gradientUnits="userSpaceOnUse" x1="264.6943" y1="259.5" x2="264.6943" y2="313.3935">
		<stop  offset="0" style="stop-color:#27AAE1"/>
		<stop  offset="1" style="stop-color:#262262"/>
	</linearGradient>
	<path fill="url(#SVGID_9_)" d="M268.242,274.045c4.635,0,8.086,1.184,10.355,3.549c2.752,2.801,4.129,7.122,4.129,12.963
		c0,6.807-1.426,11.321-4.273,13.541c-0.918,0.725-1.617,1.184-2.1,1.376c-0.482,0.193-1.184,0.435-2.1,0.725l10.064,20.855h-11.441
		l-8.762-20.06l-8.908-1.014v21.073H245.07v-53.009H268.242z M255.281,298.015h12.02c1.883,0,3.223-0.481,4.02-1.448
		c0.797-0.965,1.195-2.92,1.195-5.865c0-2.944-0.436-4.961-1.305-6.047s-2.172-1.629-3.91-1.629h-12.02V298.015z"/>
	<linearGradient id="SVGID_10_" gradientUnits="userSpaceOnUse" x1="303.1836" y1="259.5" x2="303.1836" y2="313.3934">
		<stop  offset="0" style="stop-color:#27AAE1"/>
		<stop  offset="1" style="stop-color:#262262"/>
	</linearGradient>
	<path fill="url(#SVGID_10_)" d="M296.992,288.746c1.689-0.29,3.621-0.435,5.793-0.435c2.174,0,3.863,0.036,5.07,0.108
		c1.205,0.072,2.426,0.217,3.656,0.435c1.23,0.217,2.232,0.531,3.006,0.941c0.771,0.41,1.52,0.966,2.244,1.665
		c0.725,0.701,1.279,1.533,1.666,2.499c0.869,2.172,1.303,4.671,1.303,7.495s-0.41,4.96-1.23,6.408
		c-1.594,2.752-4.756,4.128-9.486,4.128h-12.238c0,1.69,0.145,3.041,0.434,4.056c0.291,1.014,0.82,1.75,1.594,2.208
		c0.771,0.46,1.58,0.749,2.426,0.869c0.844,0.121,3.15,0.182,6.916,0.182s7.387-0.266,10.863-0.797v6.879
		c-2.174,0.822-4.357,1.329-6.555,1.521s-3.705,0.313-4.525,0.361c-0.822,0.048-1.836,0.073-3.041,0.073
		c-1.594,0.047-3.453,0.072-5.576,0.072c-4.779,0-8.088-1.496-9.922-4.49c-1.836-2.992-2.752-7.856-2.752-14.592
		c0-6.734,0.736-11.514,2.209-14.338S293.033,289.423,296.992,288.746z M309.594,301.78c0-2.413-0.326-3.97-0.979-4.671
		c-0.652-0.699-1.967-1.05-3.947-1.05s-3.344,0.062-4.092,0.182c-0.748,0.121-1.473,0.459-2.172,1.014
		c-0.699,0.556-1.146,1.388-1.34,2.498c-0.193,1.111-0.289,2.161-0.289,3.15c0,0.99,0,1.582,0,1.773h9.631
		C308.531,304.677,309.594,303.712,309.594,301.78z"/>
	<linearGradient id="SVGID_11_" gradientUnits="userSpaceOnUse" x1="340.0791" y1="259.5" x2="340.0791" y2="313.3935">
		<stop  offset="0" style="stop-color:#27AAE1"/>
		<stop  offset="1" style="stop-color:#262262"/>
	</linearGradient>
	<path fill="url(#SVGID_11_)" d="M324.654,307.791c0-3.861,0.301-7.108,0.906-9.74c0.602-2.63,1.496-4.634,2.678-6.01
		c1.184-1.376,2.5-2.354,3.947-2.934c1.449-0.579,3.162-0.868,5.143-0.868c7.096,0,12.986,0.749,17.668,2.244v6.301
		c-4.586-0.29-8.244-0.435-10.971-0.435c-2.729,0-4.369,0.049-4.924,0.145c-0.555,0.098-1.172,0.339-1.846,0.725
		c-0.678,0.387-1.16,0.989-1.449,1.811c-0.676,1.979-1.014,4.791-1.014,8.436c0,3.646,0.229,6.265,0.688,7.857
		s1.135,2.644,2.027,3.15s2.305,0.76,4.236,0.76c3.91,0,7.846-0.168,11.805-0.507l1.955-0.145v6.373
		c-2.221,1.158-4.395,1.835-6.518,2.027c-3.139,0.289-5.865,0.435-8.184,0.435h-0.434c-1.836,0-2.85,0-3.041,0
		c-3.814,0-6.809-1.279-8.98-3.838C325.885,320.729,324.654,315.467,324.654,307.791z"/>
	<linearGradient id="SVGID_12_" gradientUnits="userSpaceOnUse" x1="376.5049" y1="259.5" x2="376.5049" y2="313.3935">
		<stop  offset="0" style="stop-color:#27AAE1"/>
		<stop  offset="1" style="stop-color:#262262"/>
	</linearGradient>
	<path fill="url(#SVGID_12_)" d="M358.98,308.588c0-3.331,0.191-6.119,0.578-8.364s0.99-4.151,1.811-5.721
		c0.82-1.568,1.955-2.812,3.404-3.729c2.654-1.689,6.564-2.534,11.73-2.534c6.613,0,11.189,1.448,13.723,4.345
		c2.535,2.896,3.803,8.051,3.803,15.461c0,7.411-1.244,12.491-3.73,15.243s-7.084,4.128-13.795,4.128
		c-6.566,0-11.152-1.473-13.758-4.418C360.234,320.15,358.98,315.348,358.98,308.588z M370.604,298.377
		c-0.605,0.869-1.004,2.063-1.195,3.585c-0.193,1.521-0.291,3.584-0.291,6.191c0,2.606,0.121,4.635,0.363,6.083
		c0.24,1.448,0.688,2.547,1.34,3.295c0.65,0.749,1.387,1.22,2.209,1.412c0.82,0.193,1.93,0.289,3.33,0.289s2.449-0.047,3.15-0.145
		c0.699-0.096,1.375-0.337,2.027-0.724s1.123-0.989,1.412-1.811c0.627-1.738,0.941-4.092,0.941-7.061
		c0-2.97-0.061-5.142-0.182-6.518s-0.324-2.535-0.615-3.476c-0.289-0.941-0.748-1.604-1.375-1.992
		c-1.111-0.724-2.668-1.098-4.672-1.122c-2.004-0.023-3.428,0.085-4.271,0.326C371.93,296.954,371.205,297.508,370.604,298.377z"/>
	<linearGradient id="SVGID_13_" gradientUnits="userSpaceOnUse" x1="417.0205" y1="259.5" x2="417.0205" y2="313.3934">
		<stop  offset="0" style="stop-color:#27AAE1"/>
		<stop  offset="1" style="stop-color:#262262"/>
	</linearGradient>
	<path fill="url(#SVGID_13_)" d="M422.416,287.949c7.676,0,11.514,4.49,11.514,13.47v25.635h-10.139v-25.78
		c0-3.476-1.424-5.214-4.271-5.214c-1.932,0-3.574,0.254-4.924,0.761c-1.354,0.507-2.801,1.364-4.346,2.57v27.663h-10.139v-38.453
		h8.111l2.027,4.128c3.523-2.559,6.324-4.03,8.4-4.417C419.76,288.07,421.016,287.949,422.416,287.949z"/>
</g>
</svg>
