<?xml version="1.0" encoding="UTF-8"?>
<!DOCTYPE svg PUBLIC "-//W3C//DTD SVG 1.1//EN" "http://www.w3.org/Graphics/SVG/1.1/DTD/svg11.dtd">
<svg version="1.1" xmlns="http://www.w3.org/2000/svg" xmlns:xlink="http://www.w3.org/1999/xlink" x="0px" y="0px" width="679" height="459" viewBox="0, 0, 679, 459">
  <g id="Layer 1">
    <g>
      <path d="M306.427,272.893 L287.685,241.147 L272.768,241.147 L272.768,272.893 L257.851,272.893 L257.851,187.852 L295.207,187.852 C312.037,187.852 323.129,198.689 323.129,214.499 C323.129,229.544 313.184,237.831 302.858,239.488 L323.767,272.892 L306.427,272.892 z M307.829,214.372 C307.829,206.212 301.709,200.984 293.294,200.984 L272.767,200.984 L272.767,228.014 L293.294,228.014 C301.709,228.014 307.829,222.659 307.829,214.372 z" fill="#2525C4"/>
      <path d="M323.766,242.039 C323.766,224.189 336.769,209.781 355.002,209.781 C373.49,209.781 385.218,223.806 385.218,243.185 L385.218,246.499 L337.79,246.499 C338.811,255.68 345.694,263.456 357.298,263.456 C363.417,263.456 370.429,261.034 374.893,256.572 L381.012,265.369 C374.765,271.233 365.713,274.422 356.023,274.422 C337.407,274.423 323.766,261.546 323.766,242.039 z M354.875,220.747 C343.528,220.747 338.173,229.544 337.662,236.938 L372.342,236.938 C371.959,229.672 366.987,220.747 354.875,220.747 z" fill="#2525C4"/>
      <path d="M388.404,242.039 C388.404,223.424 401.538,209.781 420.151,209.781 C432.263,209.781 439.403,214.881 443.738,220.747 L434.94,228.779 C431.499,223.934 426.781,221.639 420.789,221.639 C409.697,221.639 402.174,230.053 402.174,242.038 C402.174,254.022 409.697,262.564 420.789,262.564 C426.781,262.564 431.499,260.014 434.94,255.168 L443.738,263.455 C439.403,269.193 432.263,274.421 420.151,274.421 C401.538,274.423 388.404,260.653 388.404,242.039 z" fill="#2525C4"/>
      <path d="M445.521,242.039 C445.521,224.316 457.505,209.781 477.139,209.781 C496.774,209.781 508.758,224.316 508.758,242.039 C508.758,259.633 496.774,274.423 477.139,274.423 C457.506,274.423 445.521,259.633 445.521,242.039 z M494.862,242.039 C494.862,231.201 488.614,221.64 477.139,221.64 C465.792,221.64 459.417,231.202 459.417,242.039 C459.417,253.003 465.792,262.565 477.139,262.565 C488.614,262.565 494.862,253.003 494.862,242.039 z" fill="#2525C4"/>
      <path d="M557.716,272.893 L557.716,234.389 C557.716,224.7 552.743,221.64 545.222,221.64 C538.464,221.64 532.6,225.72 529.412,229.799 L529.412,272.893 L516.024,272.893 L516.024,211.311 L529.412,211.311 L529.412,219.599 C533.492,214.754 541.524,209.782 551.213,209.782 C564.474,209.782 571.103,216.922 571.103,229.545 L571.103,272.894 L557.716,272.894 z" fill="#2525C4"/>
    </g>
    <path d="M228.324,235.139 C227.82,230.633 223.93,224.86 222.494,223.479 C219.638,220.731 213.48,217.569 206.232,218.57 C197.104,219.83 190.565,226.643 189.663,235.446 C189.061,241.316 192.023,248.238 195.186,251.401 C208.114,264.328 230.351,253.256 228.324,235.139 z M197.027,229.615 C197.288,229.558 197.317,229.734 197.334,229.922 C197.592,242.228 206.888,249.77 219.733,246.491 C218.168,249.746 214.089,251.645 210.221,252.013 C198.314,253.148 190.23,239.523 197.027,229.615 z" fill="#2525C4"/>
    <path d="M125.841,209.364 C129.883,206.142 133.604,202.753 138.728,201.693 C140.237,201.381 141.409,202.012 143.331,201.386 C147.424,200.053 149.303,193.469 155.297,192.488 C161.557,191.463 165.357,194.455 167.878,199.238 C169.927,197.532 175.647,197.532 177.697,199.238 C180.311,194.472 186.005,190.433 192.732,193.101 C196.72,194.684 199.238,199.403 202.244,201.386 C210.919,201.382 214.585,204.947 220.347,209.671 C226.954,215.089 234.1,220.008 236.844,228.998 C236.574,193.945 208.078,165.61 172.961,165.61 C137.887,165.61 109.42,193.873 109.079,228.866 C111.815,219.858 118.927,214.875 125.841,209.364 z" fill="#2525C4"/>
    <path d="M180.458,231.149 C181.698,224.752 176.554,220.453 170.639,221.944 C167.503,222.735 165.498,225.383 165.116,227.466 C163.048,238.742 178.818,239.606 180.458,231.149 z" fill="#A6A6A6"/>
    <path d="M129.523,255.695 C145.657,262.173 161.195,245.685 154.99,230.228 C152.074,222.963 144.403,217.15 134.125,218.569 C130.958,219.006 128.435,219.796 126.454,221.023 C121.934,223.825 118.283,228.343 117.556,235.445 C116.668,244.12 122.021,252.685 129.523,255.695 z M124.614,229.615 C125.11,229.529 125.142,229.905 125.534,229.922 C124.909,241.776 134.884,249.986 147.626,246.491 C144.092,253.619 131.476,253.599 125.84,247.103 C122.068,242.756 121.285,235.27 124.614,229.615 z" fill="#2525C4"/>
    <path d="M212.369,266.436 C201.932,267.513 193.606,263.322 188.436,258.151 C184.578,254.294 181.718,248.739 180.458,242.503 C177.711,244.267 169.19,245.408 165.729,242.503 C161.583,258.128 149.735,267.62 134.125,266.437 C127.012,265.897 120.241,262.56 115.358,257.176 C125.671,278.602 147.588,293.391 172.959,293.391 C198.416,293.391 220.392,278.501 230.662,256.956 C225.871,262.316 219.252,265.725 212.369,266.436 z" fill="#00BA25"/>
    <path d="M134.126,266.436 C149.736,267.62 161.583,258.127 165.73,242.502 C169.19,245.407 177.712,244.266 180.459,242.502 C181.719,248.738 184.579,254.293 188.437,258.15 C193.607,263.321 201.934,267.512 212.37,266.435 C219.253,265.724 225.872,262.316 230.664,256.955 C235.793,251.218 238.831,243.241 237.837,233.91 C237.649,232.141 237.307,230.514 236.844,228.998 C234.1,220.008 226.954,215.089 220.347,209.671 C214.585,204.947 210.919,201.382 202.244,201.386 C199.239,199.403 196.721,194.684 192.732,193.101 C186.005,190.433 180.311,194.472 177.697,199.238 C175.647,197.532 169.927,197.532 167.878,199.238 C165.357,194.455 161.558,191.463 155.297,192.488 C149.302,193.469 147.424,200.053 143.331,201.386 C141.409,202.012 140.237,201.381 138.728,201.693 C133.604,202.754 129.883,206.143 125.841,209.364 C118.927,214.874 111.815,219.858 109.078,228.866 C108.579,230.508 108.225,232.281 108.045,234.217 C107.173,243.573 110.22,251.508 115.359,257.175 C120.242,262.559 127.013,265.896 134.126,266.436 z M189.663,235.445 C190.564,226.642 197.103,219.829 206.232,218.569 C213.481,217.568 219.638,220.731 222.494,223.478 C223.93,224.859 227.82,230.632 228.324,235.138 C230.351,253.255 208.115,264.327 195.187,251.4 C192.023,248.237 189.062,241.315 189.663,235.445 z M165.116,227.467 C165.498,225.384 167.503,222.735 170.639,221.945 C176.554,220.454 181.698,224.753 180.458,231.15 C178.818,239.606 163.048,238.742 165.116,227.467 z M117.557,235.445 C118.284,228.343 121.935,223.825 126.455,221.023 C128.436,219.795 130.959,219.006 134.126,218.569 C144.404,217.15 152.075,222.963 154.991,230.228 C161.196,245.685 145.658,262.172 129.524,255.695 C122.021,252.685 116.668,244.12 117.557,235.445 z" fill="#FFFFFF"/>
    <path d="M147.627,246.491 C134.885,249.986 124.909,241.775 125.535,229.922 C125.142,229.905 125.11,229.529 124.615,229.615 C121.285,235.269 122.069,242.756 125.842,247.103 C131.477,253.6 144.093,253.619 147.627,246.491 z" fill="#FFFFFF"/>
    <path d="M210.221,252.014 C214.089,251.646 218.167,249.746 219.733,246.492 C206.888,249.77 197.592,242.228 197.334,229.923 C197.317,229.735 197.289,229.56 197.027,229.616 C190.23,239.523 198.314,253.148 210.221,252.014 z" fill="#FFFFFF"/>
  </g>
  <defs/>
</svg>
