<?xml version="1.0" encoding="UTF-8"?>
<!DOCTYPE svg PUBLIC "-//W3C//DTD SVG 1.1//EN" "http://www.w3.org/Graphics/SVG/1.1/DTD/svg11.dtd">
<svg version="1.1" xmlns="http://www.w3.org/2000/svg" xmlns:xlink="http://www.w3.org/1999/xlink" x="0px" y="0px" width="679" height="459" viewBox="0, 0, 679, 459">
  <g id="Layer 1">
    <path d="M337.863,208.899 C337.863,239.398 313.139,264.122 282.64,264.122 C252.141,264.122 227.417,239.398 227.417,208.899 C227.417,178.4 252.141,153.676 282.64,153.676 C313.139,153.676 337.863,178.4 337.863,208.899 z" fill="url(#Gradient_1)"/>
    <path d="M324.655,208.899 C324.655,232.103 305.844,250.914 282.64,250.914 C259.436,250.914 240.625,232.103 240.625,208.899 C240.625,185.695 259.436,166.884 282.64,166.884 C305.844,166.884 324.655,185.695 324.655,208.899 z" fill="#27AAE1"/>
    <path d="M282.639,149.2 C307.575,149.2 328.929,164.492 337.863,186.204 L337.863,162.185 L339.501,162.185 L339.501,140.844 L336.813,140.844 L336.813,134.128 L339.501,134.128 L339.501,127.263 L336.813,127.263 C336.067,125.024 333.083,119.055 326.069,119.055 C319.054,119.055 316.965,122.487 316.965,122.487 L313.234,127.412 C325.173,129.651 332.934,140.246 332.934,140.246 L330.099,140.246 C324.428,134.873 317.115,128.307 304.429,128.307 C291.742,128.307 285.474,133.978 285.474,133.978 L264.385,152.053 C270.139,150.206 276.27,149.2 282.639,149.2 z" fill="url(#Gradient_2)"/>
    <g opacity="0.6">
      <path d="M258.538,216.809 C257.211,207.648 258.459,201.138 258.459,201.138 L246.369,201.138 C245.836,203.642 245.55,206.237 245.55,208.899 C245.55,211.615 245.849,214.259 246.404,216.809 L258.538,216.809 z" fill="#FFFFFF"/>
      <path d="M259.143,220.243 L247.32,220.243 C250.833,231.184 259.286,239.912 270.056,243.795 C263.745,235.779 260.621,227.419 259.143,220.243 z" fill="#FFFFFF"/>
    </g>
    <path d="M315.47,194.998 C315.47,200.191 311.261,204.4 306.068,204.4 C300.875,204.4 296.666,200.191 296.666,194.998 C296.666,189.805 300.875,185.596 306.068,185.596 C311.261,185.596 315.47,189.805 315.47,194.998 z" fill="#FFFFFF" opacity="0.6"/>
    <path d="M301.315,181.588 C301.315,183.237 299.978,184.574 298.329,184.574 C296.68,184.574 295.343,183.237 295.343,181.588 C295.343,179.939 296.68,178.602 298.329,178.602 C299.978,178.602 301.315,179.939 301.315,181.588 z" fill="#FFFFFF" opacity="0.6"/>
    <path d="M451.583,208.899 C451.583,239.398 426.859,264.122 396.36,264.122 C365.861,264.122 341.137,239.398 341.137,208.899 C341.137,178.4 365.861,153.676 396.36,153.676 C426.859,153.676 451.583,178.4 451.583,208.899 z" fill="url(#Gradient_3)"/>
    <path d="M396.361,149.2 C371.425,149.2 350.071,164.492 341.137,186.204 L341.137,162.185 L339.5,162.185 L339.5,140.844 L342.188,140.844 L342.188,134.128 L339.5,134.128 L339.5,127.263 L342.188,127.263 C342.934,125.024 345.918,119.055 352.932,119.055 C359.947,119.055 362.036,122.487 362.036,122.487 L365.767,127.412 C353.828,129.651 346.067,140.246 346.067,140.246 L348.902,140.246 C354.573,134.873 361.886,128.307 374.572,128.307 C387.259,128.307 393.527,133.978 393.527,133.978 L414.616,152.053 C408.861,150.206 402.73,149.2 396.361,149.2 z" fill="url(#Gradient_4)"/>
    <g>
      <path d="M268.242,274.045 C272.877,274.045 276.328,275.229 278.597,277.594 C281.349,280.395 282.726,284.716 282.726,290.557 C282.726,297.364 281.3,301.878 278.453,304.098 C277.535,304.823 276.836,305.282 276.353,305.474 C275.871,305.667 275.169,305.909 274.253,306.199 L284.317,327.054 L272.876,327.054 L264.114,306.994 L255.206,305.98 L255.206,327.053 L245.07,327.053 L245.07,274.044 L268.242,274.044 z M255.281,298.015 L267.301,298.015 C269.184,298.015 270.524,297.534 271.321,296.567 C272.118,295.602 272.516,293.647 272.516,290.702 C272.516,287.758 272.08,285.741 271.211,284.655 C270.342,283.569 269.039,283.026 267.301,283.026 L255.281,283.026 L255.281,298.015 z" fill="#27AAE1"/>
      <path d="M296.992,288.746 C298.681,288.456 300.613,288.311 302.785,288.311 C304.959,288.311 306.648,288.347 307.855,288.419 C309.06,288.491 310.281,288.636 311.511,288.854 C312.741,289.071 313.743,289.385 314.517,289.795 C315.288,290.205 316.037,290.761 316.761,291.46 C317.486,292.161 318.04,292.993 318.427,293.959 C319.296,296.131 319.73,298.63 319.73,301.454 C319.73,304.278 319.32,306.414 318.5,307.862 C316.906,310.614 313.744,311.99 309.014,311.99 L296.776,311.99 C296.776,313.68 296.921,315.031 297.21,316.046 C297.501,317.06 298.03,317.796 298.804,318.254 C299.575,318.714 300.384,319.003 301.23,319.123 C302.074,319.244 304.38,319.305 308.146,319.305 C311.912,319.305 315.533,319.039 319.009,318.508 L319.009,325.387 C316.835,326.209 314.652,326.716 312.454,326.908 C310.256,327.1 308.749,327.221 307.929,327.269 C307.107,327.317 306.093,327.342 304.888,327.342 C303.294,327.389 301.435,327.414 299.312,327.414 C294.533,327.414 291.224,325.918 289.39,322.924 C287.554,319.932 286.638,315.068 286.638,308.332 C286.638,301.598 287.374,296.818 288.847,293.994 C290.32,291.17 293.033,289.423 296.992,288.746 z M309.594,301.78 C309.594,299.367 309.268,297.81 308.615,297.109 C307.963,296.41 306.648,296.059 304.668,296.059 C302.688,296.059 301.324,296.121 300.576,296.241 C299.828,296.362 299.103,296.7 298.404,297.255 C297.705,297.811 297.258,298.643 297.064,299.753 C296.871,300.864 296.775,301.914 296.775,302.903 C296.775,303.893 296.775,304.485 296.775,304.676 L306.406,304.676 C308.531,304.677 309.594,303.712 309.594,301.78 z" fill="#27AAE1"/>
      <path d="M324.654,307.791 C324.654,303.93 324.955,300.683 325.56,298.051 C326.162,295.421 327.056,293.417 328.238,292.041 C329.422,290.665 330.738,289.687 332.185,289.107 C333.634,288.528 335.347,288.239 337.328,288.239 C344.424,288.239 350.314,288.988 354.996,290.483 L354.996,296.784 C350.41,296.494 346.752,296.349 344.025,296.349 C341.296,296.349 339.656,296.398 339.101,296.494 C338.546,296.592 337.929,296.833 337.255,297.219 C336.577,297.606 336.095,298.208 335.806,299.03 C335.13,301.009 334.792,303.821 334.792,307.466 C334.792,311.112 335.021,313.731 335.48,315.323 C335.939,316.915 336.615,317.967 337.507,318.473 C338.399,318.979 339.812,319.233 341.743,319.233 C345.653,319.233 349.589,319.065 353.548,318.726 L355.503,318.581 L355.503,324.954 C353.282,326.112 351.108,326.789 348.985,326.981 C345.846,327.27 343.12,327.416 340.801,327.416 L340.367,327.416 C338.531,327.416 337.517,327.416 337.326,327.416 C333.512,327.416 330.517,326.137 328.346,323.578 C325.885,320.729 324.654,315.467 324.654,307.791 z" fill="#27AAE1"/>
      <path d="M358.98,308.588 C358.98,305.257 359.171,302.469 359.558,300.224 C359.945,297.979 360.548,296.073 361.369,294.503 C362.189,292.935 363.324,291.691 364.773,290.774 C367.427,289.085 371.337,288.24 376.503,288.24 C383.116,288.24 387.692,289.688 390.226,292.585 C392.761,295.481 394.029,300.636 394.029,308.046 C394.029,315.457 392.785,320.537 390.299,323.289 C387.813,326.041 383.215,327.417 376.504,327.417 C369.938,327.417 365.352,325.944 362.746,322.999 C360.234,320.15 358.98,315.348 358.98,308.588 z M370.604,298.377 C369.999,299.246 369.6,300.44 369.409,301.962 C369.216,303.483 369.118,305.546 369.118,308.153 C369.118,310.759 369.239,312.788 369.481,314.236 C369.721,315.684 370.169,316.783 370.821,317.531 C371.471,318.28 372.208,318.751 373.03,318.943 C373.85,319.136 374.96,319.232 376.36,319.232 C377.76,319.232 378.809,319.185 379.51,319.087 C380.209,318.991 380.885,318.75 381.537,318.363 C382.189,317.976 382.66,317.374 382.949,316.552 C383.576,314.814 383.89,312.46 383.89,309.491 C383.89,306.521 383.829,304.349 383.708,302.973 C383.587,301.597 383.384,300.438 383.093,299.497 C382.804,298.556 382.345,297.893 381.718,297.505 C380.607,296.781 379.05,296.407 377.046,296.383 C375.042,296.36 373.618,296.468 372.775,296.709 C371.93,296.954 371.205,297.508 370.604,298.377 z" fill="#27AAE1"/>
      <path d="M422.416,287.949 C430.092,287.949 433.93,292.439 433.93,301.419 L433.93,327.054 L423.791,327.054 L423.791,301.274 C423.791,297.798 422.367,296.06 419.52,296.06 C417.588,296.06 415.946,296.314 414.596,296.821 C413.242,297.328 411.795,298.185 410.25,299.391 L410.25,327.054 L400.111,327.054 L400.111,288.601 L408.222,288.601 L410.249,292.729 C413.772,290.17 416.573,288.699 418.649,288.312 C419.76,288.07 421.016,287.949 422.416,287.949 z" fill="#27AAE1"/>
    </g>
    <path d="M438.375,208.899 C438.375,232.103 419.564,250.914 396.36,250.914 C373.156,250.914 354.345,232.103 354.345,208.899 C354.345,185.695 373.156,166.884 396.36,166.884 C419.564,166.884 438.375,185.695 438.375,208.899 z" fill="#27AAE1"/>
    <g opacity="0.6">
      <path d="M372.258,216.809 C370.931,207.648 372.179,201.138 372.179,201.138 L360.089,201.138 C359.556,203.642 359.27,206.237 359.27,208.899 C359.27,211.615 359.569,214.259 360.124,216.809 L372.258,216.809 z" fill="#FFFFFF"/>
      <path d="M372.863,220.243 L361.04,220.243 C364.553,231.184 373.006,239.912 383.776,243.795 C377.465,235.779 374.341,227.419 372.863,220.243 z" fill="#FFFFFF"/>
    </g>
    <path d="M429.19,194.998 C429.19,200.191 424.981,204.4 419.788,204.4 C414.595,204.4 410.386,200.191 410.386,194.998 C410.386,189.805 414.595,185.596 419.788,185.596 C424.981,185.596 429.19,189.805 429.19,194.998 z" fill="#FFFFFF" opacity="0.6"/>
    <path d="M415.035,181.588 C415.035,183.237 413.698,184.574 412.049,184.574 C410.4,184.574 409.063,183.237 409.063,181.588 C409.063,179.939 410.4,178.602 412.049,178.602 C413.698,178.602 415.035,179.939 415.035,181.588 z" fill="#FFFFFF" opacity="0.6"/>
  </g>
  <defs>
    <linearGradient id="Gradient_1" gradientUnits="userSpaceOnUse" x1="324.305" y1="126.842" x2="265.651" y2="242.357">
      <stop offset="0" stop-color="#414042"/>
      <stop offset="1" stop-color="#000000"/>
    </linearGradient>
    <linearGradient id="Gradient_2" gradientUnits="userSpaceOnUse" x1="322.945" y1="126.151" x2="264.292" y2="241.667">
      <stop offset="0" stop-color="#414042"/>
      <stop offset="1" stop-color="#000000"/>
    </linearGradient>
    <linearGradient id="Gradient_3" gradientUnits="userSpaceOnUse" x1="1588.967" y1="126.843" x2="1530.314" y2="242.358" gradientTransform="matrix(-1, 0, 0, 1, 1943.662, 0)">
      <stop offset="0" stop-color="#414042"/>
      <stop offset="1" stop-color="#000000"/>
    </linearGradient>
    <linearGradient id="Gradient_4" gradientUnits="userSpaceOnUse" x1="1587.607" y1="126.151" x2="1528.954" y2="241.668" gradientTransform="matrix(-1, 0, 0, 1, 1943.662, 0)">
      <stop offset="0" stop-color="#414042"/>
      <stop offset="1" stop-color="#000000"/>
    </linearGradient>
  </defs>
</svg>
