<?xml version="1.0" encoding="UTF-8" standalone="no"?>
<svg
   xmlns:dc="http://purl.org/dc/elements/1.1/"
   xmlns:cc="http://creativecommons.org/ns#"
   xmlns:rdf="http://www.w3.org/1999/02/22-rdf-syntax-ns#"
   xmlns:svg="http://www.w3.org/2000/svg"
   xmlns="http://www.w3.org/2000/svg"
   xmlns:sodipodi="http://sodipodi.sourceforge.net/DTD/sodipodi-0.dtd"
   xmlns:inkscape="http://www.inkscape.org/namespaces/inkscape"
   version="1.1"
   x="0px"
   y="0px"
   width="224.166"
   height="208.362"
   viewBox="0 0 224.166 208.362"
   id="svg2"
   inkscape:version="0.48.4 r9939"
   sodipodi:docname="logo_glossy.svg">
  <metadata
     id="metadata122">
    <rdf:RDF>
      <cc:Work
         rdf:about="">
        <dc:format>image/svg+xml</dc:format>
        <dc:type
           rdf:resource="http://purl.org/dc/dcmitype/StillImage" />
      </cc:Work>
    </rdf:RDF>
  </metadata>
  <sodipodi:namedview
     pagecolor="#ffffff"
     bordercolor="#666666"
     borderopacity="1"
     objecttolerance="10"
     gridtolerance="10"
     guidetolerance="10"
     inkscape:pageopacity="0"
     inkscape:pageshadow="2"
     inkscape:window-width="640"
     inkscape:window-height="480"
     id="namedview120"
     showgrid="false"
     fit-margin-top="0"
     fit-margin-left="0"
     fit-margin-right="0"
     fit-margin-bottom="0"
     inkscape:zoom="0.43888071"
     inkscape:cx="112.083"
     inkscape:cy="97.917"
     inkscape:window-x="900"
     inkscape:window-y="169"
     inkscape:window-maximized="0"
     inkscape:current-layer="svg2" />
  <g
     id="Layer 1"
     transform="translate(-227.417,-119.055)">
    <path
       d="m 337.863,208.899 c 0,30.499 -24.724,55.223 -55.223,55.223 -30.499,0 -55.223,-24.724 -55.223,-55.223 0,-30.499 24.724,-55.223 55.223,-55.223 30.499,0 55.223,24.724 55.223,55.223 z"
       id="path5"
       inkscape:connector-curvature="0"
       style="fill:url(#Gradient_1)" />
    <path
       d="m 324.655,208.899 c 0,23.204 -18.811,42.015 -42.015,42.015 -23.204,0 -42.015,-18.811 -42.015,-42.015 0,-23.204 18.811,-42.015 42.015,-42.015 23.204,0 42.015,18.811 42.015,42.015 z"
       id="path7"
       inkscape:connector-curvature="0"
       style="fill:url(#Gradient_2)" />
    <path
       d="m 282.639,149.2 c 24.936,0 46.29,15.292 55.224,37.004 l 0,-24.019 1.638,0 0,-21.341 -2.688,0 0,-6.716 2.688,0 0,-6.865 -2.688,0 c -0.746,-2.239 -3.73,-8.208 -10.744,-8.208 -7.015,0 -9.104,3.432 -9.104,3.432 l -3.731,4.925 c 11.939,2.239 19.7,12.834 19.7,12.834 l -2.835,0 c -5.671,-5.373 -12.984,-11.939 -25.67,-11.939 -12.687,0 -18.955,5.671 -18.955,5.671 l -21.089,18.075 c 5.754,-1.847 11.885,-2.853 18.254,-2.853 z"
       id="path9"
       inkscape:connector-curvature="0"
       style="fill:url(#Gradient_3)" />
    <path
       d="m 335.176,175.228 c -11.328,-17.735 -30.941,-28.714 -52.537,-28.714 -2.787,0 -5.562,0.185 -8.308,0.553 l 12.89,-11.047 c 0.098,-0.085 5.846,-5.025 17.207,-5.025 11.997,0 18.832,6.476 23.822,11.203 l 0.777,0.736 5.099,0 0,0.597 2.688,0 0,15.969 -1.638,0 0,15.728 z m -1.05,-37.787 c -2.21,-2.617 -8.033,-8.721 -16.34,-11.59 l 1.461,-1.929 0.005,-0.015 c 0.292,-0.355 2.021,-2.166 6.816,-2.166 5.777,0 7.841,5.308 8.196,6.371 l 0.612,1.836 1.937,0 -10e-4,1.493 -2.687,0 0,6 z"
       id="path11"
       inkscape:connector-curvature="0"
       style="fill:url(#Gradient_4)" />
    <g
       id="g13"
       style="opacity:0.6">
      <path
         d="m 258.538,216.809 c -1.327,-9.161 -0.079,-15.671 -0.079,-15.671 l -12.09,0 c -0.533,2.504 -0.819,5.099 -0.819,7.761 0,2.716 0.299,5.36 0.854,7.91 l 12.134,0 z"
         id="path15"
         inkscape:connector-curvature="0"
         style="fill:#ffffff" />
      <path
         d="m 259.143,220.243 -11.823,0 c 3.513,10.941 11.966,19.669 22.736,23.552 -6.311,-8.016 -9.435,-16.376 -10.913,-23.552 z"
         id="path17"
         inkscape:connector-curvature="0"
         style="fill:#ffffff" />
    </g>
    <path
       d="m 315.47,194.998 c 0,5.193 -4.209,9.402 -9.402,9.402 -5.193,0 -9.402,-4.209 -9.402,-9.402 0,-5.193 4.209,-9.402 9.402,-9.402 5.193,0 9.402,4.209 9.402,9.402 z"
       id="path19"
       inkscape:connector-curvature="0"
       style="opacity:0.6;fill:#ffffff" />
    <path
       d="m 301.315,181.588 c 0,1.649 -1.337,2.986 -2.986,2.986 -1.649,0 -2.986,-1.337 -2.986,-2.986 0,-1.649 1.337,-2.986 2.986,-2.986 1.649,0 2.986,1.337 2.986,2.986 z"
       id="path21"
       inkscape:connector-curvature="0"
       style="opacity:0.6;fill:#ffffff" />
    <path
       d="m 451.583,208.899 c 0,30.499 -24.724,55.223 -55.223,55.223 -30.499,0 -55.223,-24.724 -55.223,-55.223 0,-30.499 24.724,-55.223 55.223,-55.223 30.499,0 55.223,24.724 55.223,55.223 z"
       id="path23"
       inkscape:connector-curvature="0"
       style="fill:url(#Gradient_5)" />
    <path
       d="m 396.361,149.2 c -24.936,0 -46.29,15.292 -55.224,37.004 l 0,-24.019 -1.637,0 0,-21.341 2.688,0 0,-6.716 -2.688,0 0,-6.865 2.688,0 c 0.746,-2.239 3.73,-8.208 10.744,-8.208 7.015,0 9.104,3.432 9.104,3.432 l 3.731,4.925 c -11.939,2.239 -19.7,12.834 -19.7,12.834 l 2.835,0 c 5.671,-5.373 12.984,-11.939 25.67,-11.939 12.687,0 18.955,5.671 18.955,5.671 l 21.089,18.075 C 408.861,150.206 402.73,149.2 396.361,149.2 z"
       id="path25"
       inkscape:connector-curvature="0"
       style="fill:url(#Gradient_6)" />
    <path
       d="m 343.824,159.5 -1.638,0 0,-15.97 2.688,0 0,-0.597 5.099,0 0.777,-0.736 c 4.99,-4.728 11.825,-11.203 23.822,-11.203 11.361,0 17.109,4.939 17.207,5.025 l 12.89,11.047 c -2.746,-0.368 -5.521,-0.553 -8.308,-0.553 -21.596,0 -41.209,10.979 -52.537,28.714 l 0,-15.727 z m 1.05,-28.059 -2.687,0 -0.001,-1.493 1.937,0 0.612,-1.836 c 0.355,-1.063 2.419,-6.371 8.196,-6.371 4.796,0 6.524,1.811 6.816,2.166 l 0.005,0.015 1.461,1.929 c -8.307,2.869 -14.13,8.973 -16.34,11.59 l 0,-6 z"
       id="path27"
       inkscape:connector-curvature="0"
       style="fill:url(#Gradient_7)" />
    <g
       id="g29">
      <path
         d="m 268.242,274.045 c 4.635,0 8.086,1.184 10.355,3.549 2.752,2.801 4.129,7.122 4.129,12.963 0,6.807 -1.426,11.321 -4.273,13.541 -0.918,0.725 -1.617,1.184 -2.1,1.376 -0.482,0.193 -1.184,0.435 -2.1,0.725 l 10.064,20.855 -11.441,0 -8.762,-20.06 -8.908,-1.014 0,21.073 -10.136,0 0,-53.009 23.172,0 z m -12.961,23.97 12.02,0 c 1.883,0 3.223,-0.481 4.02,-1.448 0.797,-0.965 1.195,-2.92 1.195,-5.865 0,-2.944 -0.436,-4.961 -1.305,-6.047 -0.869,-1.086 -2.172,-1.629 -3.91,-1.629 l -12.02,0 0,14.989 z"
         id="path31"
         inkscape:connector-curvature="0"
         style="fill:url(#Gradient_8)" />
      <path
         d="m 296.992,288.746 c 1.689,-0.29 3.621,-0.435 5.793,-0.435 2.174,0 3.863,0.036 5.07,0.108 1.205,0.072 2.426,0.217 3.656,0.435 1.23,0.217 2.232,0.531 3.006,0.941 0.771,0.41 1.52,0.966 2.244,1.665 0.725,0.701 1.279,1.533 1.666,2.499 0.869,2.172 1.303,4.671 1.303,7.495 0,2.824 -0.41,4.96 -1.23,6.408 -1.594,2.752 -4.756,4.128 -9.486,4.128 l -12.238,0 c 0,1.69 0.145,3.041 0.434,4.056 0.291,1.014 0.82,1.75 1.594,2.208 0.771,0.46 1.58,0.749 2.426,0.869 0.844,0.121 3.15,0.182 6.916,0.182 3.766,0 7.387,-0.266 10.863,-0.797 l 0,6.879 c -2.174,0.822 -4.357,1.329 -6.555,1.521 -2.198,0.192 -3.705,0.313 -4.525,0.361 -0.822,0.048 -1.836,0.073 -3.041,0.073 -1.594,0.047 -3.453,0.072 -5.576,0.072 -4.779,0 -8.088,-1.496 -9.922,-4.49 -1.836,-2.992 -2.752,-7.856 -2.752,-14.592 0,-6.734 0.736,-11.514 2.209,-14.338 1.473,-2.824 4.186,-4.571 8.145,-5.248 z m 12.602,13.034 c 0,-2.413 -0.326,-3.97 -0.979,-4.671 -0.652,-0.699 -1.967,-1.05 -3.947,-1.05 -1.98,0 -3.344,0.062 -4.092,0.182 -0.748,0.121 -1.473,0.459 -2.172,1.014 -0.699,0.556 -1.146,1.388 -1.34,2.498 -0.193,1.111 -0.289,2.161 -0.289,3.15 0,0.99 0,1.582 0,1.773 l 9.631,0 c 2.125,0.001 3.188,-0.964 3.188,-2.896 z"
         id="path33"
         inkscape:connector-curvature="0"
         style="fill:url(#Gradient_9)" />
      <path
         d="m 324.654,307.791 c 0,-3.861 0.301,-7.108 0.906,-9.74 0.602,-2.63 1.496,-4.634 2.678,-6.01 1.184,-1.376 2.5,-2.354 3.947,-2.934 1.449,-0.579 3.162,-0.868 5.143,-0.868 7.096,0 12.986,0.749 17.668,2.244 l 0,6.301 c -4.586,-0.29 -8.244,-0.435 -10.971,-0.435 -2.729,0 -4.369,0.049 -4.924,0.145 -0.555,0.098 -1.172,0.339 -1.846,0.725 -0.678,0.387 -1.16,0.989 -1.449,1.811 -0.676,1.979 -1.014,4.791 -1.014,8.436 0,3.646 0.229,6.265 0.688,7.857 0.459,1.592 1.135,2.644 2.027,3.15 0.892,0.506 2.305,0.76 4.236,0.76 3.91,0 7.846,-0.168 11.805,-0.507 l 1.955,-0.145 0,6.373 c -2.221,1.158 -4.395,1.835 -6.518,2.027 -3.139,0.289 -5.865,0.435 -8.184,0.435 l -0.434,0 c -1.836,0 -2.85,0 -3.041,0 -3.814,0 -6.809,-1.279 -8.98,-3.838 -2.461,-2.849 -3.692,-8.111 -3.692,-15.787 z"
         id="path35"
         inkscape:connector-curvature="0"
         style="fill:url(#Gradient_10)" />
      <path
         d="m 358.98,308.588 c 0,-3.331 0.191,-6.119 0.578,-8.364 0.387,-2.245 0.99,-4.151 1.811,-5.721 0.82,-1.568 1.955,-2.812 3.404,-3.729 2.654,-1.689 6.564,-2.534 11.73,-2.534 6.613,0 11.189,1.448 13.723,4.345 2.535,2.896 3.803,8.051 3.803,15.461 0,7.411 -1.244,12.491 -3.73,15.243 -2.486,2.752 -7.084,4.128 -13.795,4.128 -6.566,0 -11.152,-1.473 -13.758,-4.418 -2.512,-2.849 -3.766,-7.651 -3.766,-14.411 z m 11.624,-10.211 c -0.605,0.869 -1.004,2.063 -1.195,3.585 -0.193,1.521 -0.291,3.584 -0.291,6.191 0,2.606 0.121,4.635 0.363,6.083 0.24,1.448 0.688,2.547 1.34,3.295 0.65,0.749 1.387,1.22 2.209,1.412 0.82,0.193 1.93,0.289 3.33,0.289 1.4,0 2.449,-0.047 3.15,-0.145 0.699,-0.096 1.375,-0.337 2.027,-0.724 0.652,-0.387 1.123,-0.989 1.412,-1.811 0.627,-1.738 0.941,-4.092 0.941,-7.061 0,-2.97 -0.061,-5.142 -0.182,-6.518 -0.121,-1.376 -0.324,-2.535 -0.615,-3.476 -0.289,-0.941 -0.748,-1.604 -1.375,-1.992 -1.111,-0.724 -2.668,-1.098 -4.672,-1.122 -2.004,-0.023 -3.428,0.085 -4.271,0.326 -0.845,0.245 -1.57,0.799 -2.171,1.668 z"
         id="path37"
         inkscape:connector-curvature="0"
         style="fill:url(#Gradient_11)" />
      <path
         d="m 422.416,287.949 c 7.676,0 11.514,4.49 11.514,13.47 l 0,25.635 -10.139,0 0,-25.78 c 0,-3.476 -1.424,-5.214 -4.271,-5.214 -1.932,0 -3.574,0.254 -4.924,0.761 -1.354,0.507 -2.801,1.364 -4.346,2.57 l 0,27.663 -10.139,0 0,-38.453 8.111,0 2.027,4.128 c 3.523,-2.559 6.324,-4.03 8.4,-4.417 1.111,-0.242 2.367,-0.363 3.767,-0.363 z"
         id="path39"
         inkscape:connector-curvature="0"
         style="fill:url(#Gradient_12)" />
    </g>
    <path
       d="m 438.375,208.899 c 0,23.204 -18.811,42.015 -42.015,42.015 -23.204,0 -42.015,-18.811 -42.015,-42.015 0,-23.204 18.811,-42.015 42.015,-42.015 23.204,0 42.015,18.811 42.015,42.015 z"
       id="path41"
       inkscape:connector-curvature="0"
       style="fill:url(#Gradient_13)" />
    <g
       id="g43"
       style="opacity:0.6">
      <path
         d="m 372.258,216.809 c -1.327,-9.161 -0.079,-15.671 -0.079,-15.671 l -12.09,0 c -0.533,2.504 -0.819,5.099 -0.819,7.761 0,2.716 0.299,5.36 0.854,7.91 l 12.134,0 z"
         id="path45"
         inkscape:connector-curvature="0"
         style="fill:#ffffff" />
      <path
         d="m 372.863,220.243 -11.823,0 c 3.513,10.941 11.966,19.669 22.736,23.552 -6.311,-8.016 -9.435,-16.376 -10.913,-23.552 z"
         id="path47"
         inkscape:connector-curvature="0"
         style="fill:#ffffff" />
    </g>
    <path
       d="m 429.19,194.998 c 0,5.193 -4.209,9.402 -9.402,9.402 -5.193,0 -9.402,-4.209 -9.402,-9.402 0,-5.193 4.209,-9.402 9.402,-9.402 5.193,0 9.402,4.209 9.402,9.402 z"
       id="path49"
       inkscape:connector-curvature="0"
       style="opacity:0.6;fill:#ffffff" />
    <path
       d="m 415.035,181.588 c 0,1.649 -1.337,2.986 -2.986,2.986 -1.649,0 -2.986,-1.337 -2.986,-2.986 0,-1.649 1.337,-2.986 2.986,-2.986 1.649,0 2.986,1.337 2.986,2.986 z"
       id="path51"
       inkscape:connector-curvature="0"
       style="opacity:0.6;fill:#ffffff" />
  </g>
  <defs
     id="defs53">
    <linearGradient
       id="Gradient_1"
       gradientUnits="userSpaceOnUse"
       x1="324.30499"
       y1="126.842"
       x2="265.651"
       y2="242.35699">
      <stop
         offset="0"
         stop-color="#414042"
         id="stop56" />
      <stop
         offset="1"
         stop-color="#000000"
         id="stop58" />
    </linearGradient>
    <radialGradient
       id="Gradient_2"
       gradientUnits="userSpaceOnUse"
       cx="255.09599"
       cy="204.27299"
       r="54.390999">
      <stop
         offset="0"
         stop-color="#27AAE1"
         id="stop61" />
      <stop
         offset="1"
         stop-color="#262262"
         id="stop63" />
    </radialGradient>
    <linearGradient
       id="Gradient_3"
       gradientUnits="userSpaceOnUse"
       x1="322.94501"
       y1="126.151"
       x2="264.29199"
       y2="241.66701">
      <stop
         offset="0"
         stop-color="#414042"
         id="stop66" />
      <stop
         offset="1"
         stop-color="#000000"
         id="stop68" />
    </linearGradient>
    <linearGradient
       id="Gradient_4"
       gradientUnits="userSpaceOnUse"
       x1="265.52802"
       y1="125.053"
       x2="305.15302"
       y2="139.157">
      <stop
         offset="0"
         stop-color="#FFFFFF"
         id="stop71" />
      <stop
         offset="1"
         stop-color="#FFFFFF"
         stop-opacity="0"
         id="stop73" />
    </linearGradient>
    <linearGradient
       id="Gradient_5"
       gradientUnits="userSpaceOnUse"
       x1="1588.967"
       y1="126.843"
       x2="1530.314"
       y2="242.358"
       gradientTransform="matrix(-1,0,0,1,1943.662,0)">
      <stop
         offset="0"
         stop-color="#414042"
         id="stop76" />
      <stop
         offset="1"
         stop-color="#000000"
         id="stop78" />
    </linearGradient>
    <linearGradient
       id="Gradient_6"
       gradientUnits="userSpaceOnUse"
       x1="1587.6071"
       y1="126.151"
       x2="1528.954"
       y2="241.668"
       gradientTransform="matrix(-1,0,0,1,1943.662,0)">
      <stop
         offset="0"
         stop-color="#414042"
         id="stop81" />
      <stop
         offset="1"
         stop-color="#000000"
         id="stop83" />
    </linearGradient>
    <linearGradient
       id="Gradient_7"
       gradientUnits="userSpaceOnUse"
       x1="1530.1899"
       y1="125.053"
       x2="1569.8149"
       y2="139.15601"
       gradientTransform="matrix(-1,0,0,1,1943.662,0)">
      <stop
         offset="0"
         stop-color="#FFFFFF"
         id="stop86" />
      <stop
         offset="1"
         stop-color="#FFFFFF"
         stop-opacity="0"
         id="stop88" />
    </linearGradient>
    <linearGradient
       id="Gradient_8"
       gradientUnits="userSpaceOnUse"
       x1="264.694"
       y1="259.5"
       x2="264.694"
       y2="313.39301">
      <stop
         offset="0"
         stop-color="#27AAE1"
         id="stop91" />
      <stop
         offset="1"
         stop-color="#262262"
         id="stop93" />
    </linearGradient>
    <linearGradient
       id="Gradient_9"
       gradientUnits="userSpaceOnUse"
       x1="303.18399"
       y1="259.5"
       x2="303.18399"
       y2="313.39301">
      <stop
         offset="0"
         stop-color="#27AAE1"
         id="stop96" />
      <stop
         offset="1"
         stop-color="#262262"
         id="stop98" />
    </linearGradient>
    <linearGradient
       id="Gradient_10"
       gradientUnits="userSpaceOnUse"
       x1="340.07901"
       y1="259.5"
       x2="340.07901"
       y2="313.39301">
      <stop
         offset="0"
         stop-color="#27AAE1"
         id="stop101" />
      <stop
         offset="1"
         stop-color="#262262"
         id="stop103" />
    </linearGradient>
    <linearGradient
       id="Gradient_11"
       gradientUnits="userSpaceOnUse"
       x1="376.505"
       y1="259.5"
       x2="376.505"
       y2="313.39301">
      <stop
         offset="0"
         stop-color="#27AAE1"
         id="stop106" />
      <stop
         offset="1"
         stop-color="#262262"
         id="stop108" />
    </linearGradient>
    <linearGradient
       id="Gradient_12"
       gradientUnits="userSpaceOnUse"
       x1="417.01999"
       y1="259.5"
       x2="417.01999"
       y2="313.39301">
      <stop
         offset="0"
         stop-color="#27AAE1"
         id="stop111" />
      <stop
         offset="1"
         stop-color="#262262"
         id="stop113" />
    </linearGradient>
    <radialGradient
       id="Gradient_13"
       gradientUnits="userSpaceOnUse"
       cx="368.81601"
       cy="204.27299"
       r="54.390999">
      <stop
         offset="0"
         stop-color="#27AAE1"
         id="stop116" />
      <stop
         offset="1"
         stop-color="#262262"
         id="stop118" />
    </radialGradient>
  </defs>
</svg>
